<?xml version="1.0" encoding="utf-8"?>
<!-- Generator: Adobe Illustrator 28.2.0, SVG Export Plug-In . SVG Version: 6.00 Build 0)  -->
<svg version="1.1" id="Layer_1" xmlns="http://www.w3.org/2000/svg" xmlns:xlink="http://www.w3.org/1999/xlink" x="0px" y="0px"
	 viewBox="0 0 2544.6 2200" style="enable-background:new 0 0 2544.6 2200;" xml:space="preserve">
<style type="text/css">
	.st0{opacity:0.3;}
	.st1{opacity:0.56;}
	.st2{fill:#BBDEFB;}
	.st3{fill:#9DC89E;}
	.st4{fill:#599E85;}
	.st5{fill:#70617F;}
	.st6{fill:#7BCEEF;}
	.st7{fill:#374C82;}
	.st8{fill:#FFFFFF;}
	.st9{fill:#EEFAFF;}
	.st10{opacity:0.5;}
	.st11{fill:#5EB9F7;}
	.st12{fill:#F48FB1;}
	.st13{fill:#E06594;}
	.st14{fill:#58ABDD;}
	.st15{fill:#F8CD9E;}
	.st16{fill:#EA876C;}
	.st17{fill:#FB9D7E;}
	.st18{fill:#99D6FF;}
</style>
<g>
	<g>
		<g>
			<g class="st0">
				<g>
					<g class="st1">
						<path class="st2" d="M2332.5,1807.9c-0.3,9-1,18.1-2.2,27.3c-0.2,1.5-0.4,3.1-0.6,4.6c-2,13.8-5.1,27.9-9.3,42.1
							c-0.4,1.5-0.9,2.9-1.4,4.4c-2.9,9.3-6.3,18.8-10.3,28.2v0c-14.2,33.7-35,67.9-63.7,101.5c-5.4,6.4-11.1,12.7-17.1,19H220.7
							c0.1-6.2,0.4-12.5,0.9-19c2.5-35.9,10.1-75.2,26.3-115.5c6.7-16.6,14.8-33.4,24.6-50.2c0.8-1.3,1.6-2.7,2.4-4
							c1.2-2.1,2.5-4.1,3.7-6.1c0.7-1.2,1.5-2.3,2.2-3.5c6.2-9.7,13-19.4,20.5-29c0.9-1.2,1.8-2.4,2.8-3.6c0,0,0,0,0,0
							c1.4-1.7,2.8-3.5,4.2-5.2c14.3-17.5,30.7-34.8,49.6-51.7c27-24.2,58.9-47.5,96.6-69.4c1.1-0.6,2.2-1.3,3.3-1.9h0
							c13.8-7.9,28.3-15.7,43.7-23.2c5.5-2.7,10.9-5.3,16.2-8c0.1-0.1,0.2-0.1,0.3-0.2c1.5-0.8,3-1.5,4.5-2.2
							c0.3-0.1,0.5-0.3,0.8-0.4h0c1.2-0.6,2.4-1.2,3.7-1.9c3.5-1.7,7-3.5,10.4-5.2c8.8-4.4,17.2-8.7,25.4-13
							c321.9-166.8,211.8-203.9,224.9-462.2c0.1-2.8,0.4-5.6,0.6-8.4c0.1-1.2,0.2-2.4,0.4-3.6c31.9-275.4,582.4-829.6,913.9-697
							c83.5,33.4,140.6,88.4,178.2,153.9c113.8,198.4,47.8,575.8-10.8,657.1c-2.9,4-5.6,8.2-8.1,12.6c-0.6,1.1-1.3,2.2-1.9,3.3
							c-0.7,1.3-1.4,2.6-2.1,3.9c-0.5,1-1,1.9-1.5,2.9c-0.6,1.2-1.2,2.3-1.7,3.5c-0.6,1.2-1.1,2.4-1.6,3.6
							c-48,107.5-19.5,300.7,144.7,293.2c1.6-0.1,3.3-0.1,4.9-0.3c6.8-0.5,13.9-1.3,21.2-2.5c9.5-1.5,19.5-3.7,29.8-6.5
							c6.4-1.7,13-3.7,19.8-6c12.9-4.4,25.9-7,38.8-8.1c6.8-0.6,13.5-0.8,20.3-0.5c1.6,0.1,3.3,0.1,4.9,0.3
							c17.7,1.2,35,5.1,51.6,11.6c0,0,0,0,0,0c1.8,0.6,3.5,1.3,5.2,2.1c15.1,6.4,29.6,14.8,43,25.1
							C2295.3,1643.2,2335.1,1719.7,2332.5,1807.9z"/>
					</g>
				</g>
				<g>
					<g class="st1">
						<path class="st2" d="M2368.8,1816.5c-0.3,4.8-0.8,9.5-1.4,14.3c-0.2,1.5-0.4,3-0.6,4.6c-1,7.4-2.4,14.9-4,22.5
							c-11.6,52.7-38.9,106.9-86.1,158.1c-5.9,6.4-12.1,12.7-18.6,19H250.7c1.4-6.2,2.8-12.6,4.5-19c4.9-18.9,11.4-38.9,19.8-59.4
							c2.7-6.6,5.5-13.2,8.6-19.8c2.1-4.6,4.4-9.2,6.7-13.9c7.6-15,16.3-30.2,26.2-45.5c0.7-1.2,1.5-2.3,2.3-3.5
							c0.4-0.6,0.8-1.2,1.2-1.7c0.9-1.3,1.7-2.6,2.6-3.9c6.1-8.9,12.6-17.9,19.5-26.8c2.5-3.1,5-6.3,7.6-9.4
							c3.7-4.5,7.5-9,11.4-13.5c7.6-8.7,15.7-17.4,24.3-26c13.1-13.2,27.4-26.3,43-39.1c1.4-1.2,2.8-2.3,4.2-3.5h0
							c13.8-11.2,28.4-22.1,44.2-32.9h0c1-0.7,2.1-1.4,3.2-2.1c12.2-8.2,25-16.4,38.5-24.3c1.2-0.7,2.3-1.3,3.5-2
							c3.7-2.2,7.4-4.3,11.2-6.4c0.9-0.5,1.8-1,2.7-1.5c0.4-0.3,0.8-0.5,1.3-0.7c0.2-0.1,0.3-0.2,0.5-0.3c1.1-0.6,2.2-1.2,3.3-1.8
							c11.4-6.2,23.2-12.4,35.4-18.4c396.5-194.1,197.7-226.8,211.6-500.2c0.1-2.8,0.4-5.6,0.6-8.4c0.1-1.2,0.2-2.4,0.4-3.6
							c33.2-273.7,626.3-767.6,957.8-635c57.8,23.1,101.7,54.7,134.3,91.9c157.4,178.9,53.8,567.6-10.8,657.1
							c-2.9,4-5.6,8.2-8.1,12.6c-0.6,1.1-1.3,2.2-1.9,3.3c-0.7,1.3-1.4,2.6-2.1,3.9c-0.5,1-1,1.9-1.5,2.9c-0.6,1.2-1.2,2.3-1.7,3.5
							c-0.6,1.2-1.1,2.4-1.6,3.6c-45.3,102.8-12.5,276.5,143.1,274.9c1.1,0,2.3,0,3.4-0.1c0.2,0,0.3,0,0.5,0c1.6,0,3.3-0.1,4.9-0.2
							c11-0.5,22.5-1.9,34.6-4.3c0,0,0,0,0,0c1.6-0.3,3.2-0.6,4.8-1c0,0,0,0,0,0c12.5-2.6,25.6-6.2,39.3-10.8
							c14.6-4.9,29.2-7.9,43.6-9.2c27.6-2.5,54.7,1.4,80.2,10.5c1.8,0.6,3.7,1.3,5.5,2c13.7,5.3,26.9,12.1,39.5,20.3
							C2326,1620.8,2376.2,1713.4,2368.8,1816.5z"/>
					</g>
				</g>
			</g>
			<g class="st1">
				<g class="st1">
					
						<ellipse transform="matrix(0.646 -0.7633 0.7633 0.646 -233.1048 2049.2654)" class="st2" cx="2093" cy="1276" rx="211.3" ry="171.9"/>
				</g>
				<g class="st1">
					
						<ellipse transform="matrix(0.646 -0.7633 0.7633 0.646 -269.5674 2055.4131)" class="st2" cx="2081.4" cy="1318.4" rx="211.3" ry="171.9"/>
				</g>
			</g>
			<g class="st1">
				<g class="st1">
					
						<ellipse transform="matrix(0.646 -0.7633 0.7633 0.646 -808.3068 915.6104)" class="st2" cx="583.1" cy="1329.3" rx="212.1" ry="172.6"/>
				</g>
				<g class="st1">
					
						<ellipse transform="matrix(0.646 -0.7633 0.7633 0.646 -844.8997 921.7796)" class="st2" cx="571.4" cy="1371.9" rx="212.1" ry="172.6"/>
				</g>
			</g>
			<g class="st1">
				<g class="st1">
					
						<ellipse transform="matrix(0.8032 -0.5957 0.5957 0.8032 -373.3818 591.1708)" class="st2" cx="708.1" cy="860.7" rx="165.8" ry="134.9"/>
				</g>
				<g class="st1">
					
						<ellipse transform="matrix(0.8032 -0.5957 0.5957 0.8032 -394.6759 587.3311)" class="st2" cx="691.6" cy="891" rx="165.8" ry="134.9"/>
				</g>
			</g>
		</g>
		<g>
			<g>
				<g>
					<path class="st3" d="M1956.7,1880.9l-4.6-1.1c0.2-3.2-0.4-54.8-0.6-68.3c0-2.1,0-4.3,0.2-6.4c1-11.8,2-23.3,3.1-34.4
						c0.7-7.4,1.5-14.7,2.2-21.7c0.1-0.6,0.1-1.3,0.2-1.9c0,0,0,0,0,0c6-55.9,12.4-97.5,13.3-103.3c0.1-0.4,0.1-0.7,0.1-0.7l4.5,0.7
						c0,0.1-0.5,3.3-1.4,9.1c-1.5,10-4,27.6-6.8,50.4l0,0c-0.2,1.8-0.4,3.7-0.7,5.5c-2.3,18.4-4.7,39.9-7,63c-1,10.6-2,21.5-3,32.6
						c-0.3,3.3-0.4,6.7-0.3,10C1956.2,1830.1,1956.8,1877.7,1956.7,1880.9z"/>
				</g>
				<g>
					<path class="st3" d="M1957.3,1749.4c0,0-38-79.3-24.3-104.4c13.7-25.1,31.2-6.1,27.6,32.5
						C1957,1716.2,1957.3,1749.4,1957.3,1749.4z"/>
				</g>
				<g>
					<path class="st3" d="M1956.3,1845.4c0,0-51.9-70.9-43.1-98.1c8.8-27.2,29.6-11.8,33.1,26.9
						C1949.9,1812.8,1956.3,1845.4,1956.3,1845.4z"/>
				</g>
				<g>
					<path class="st3" d="M1965.3,1710.7c0,0,9.9-52.7,35.6-71.4c25.7-18.6,32.7,5.8,10.1,28.2
						C1988.5,1689.9,1968.6,1702.3,1965.3,1710.7z"/>
				</g>
				<g>
					<path class="st3" d="M1952.6,1803.6c0,0,9.9-52.7,35.6-71.4c25.7-18.6,32.7,5.8,10.1,28.2
						C1975.7,1782.8,1955.8,1795.2,1952.6,1803.6z"/>
				</g>
				<g>
					<path class="st3" d="M1973.2,1656.4c0,0-15.4-66.7-2-87.3c13.4-20.6,31.9,3,18.2,36.5
						C1975.6,1639.1,1973.2,1656.4,1973.2,1656.4z"/>
				</g>
			</g>
			<g>
				<path class="st3" d="M1923.5,2023.1c0,0,38.7-107.2,129.5-141.5l-23.5,48.7l44.6-54.6c0,0,30.5-16.4,69.5-20.1
					c38.9-3.7,48.1-2.7,48.1-2.7l-28.2,34.4l62.2-36.1c0,0,78.6-0.2,141.2,24.8c0,0-39.9,6.5-65.7,37c-25.8,30.5-64,39.7-64,39.7
					s-21.2-12.5-55.5-13.1c0,0,30.9,13.7,36.5,23.6c0,0-28.8,13-43.8,22.7c-15,9.7-49.5,22.9-49.5,22.9l-46-21.5l28.5,28.3
					c0,0-24,18.9-69.2,11.4C1993,2019.7,1923.5,2023.1,1923.5,2023.1z"/>
			</g>
			<g>
				<g>
					<path class="st4" d="M2028.6,1952.3c-0.7,0-1.3-0.4-1.6-1.1c-0.4-0.9,0-1.9,0.9-2.3c1.6-0.7,164.7-70.5,315.7-75.2
						c1,0,1.8,0.7,1.8,1.7c0,1-0.7,1.8-1.7,1.8c-150.3,4.6-312.8,74.2-314.4,74.9C2029.1,1952.3,2028.9,1952.3,2028.6,1952.3z"/>
				</g>
				<g>
					<path class="st4" d="M2199.1,1974.2c-0.1,0-0.2,0-0.2,0c-0.3,0-8.8-1.3-36.3-15c-27-13.5-78-28.1-78.5-28.2
						c-0.9-0.3-1.5-1.2-1.2-2.2s1.2-1.5,2.2-1.2c0.5,0.1,51.8,14.8,79.1,28.5c26.6,13.3,35.1,14.6,35.1,14.7c1,0.1,1.6,1,1.5,2
						C2200.7,1973.6,2199.9,1974.2,2199.1,1974.2z"/>
				</g>
				<g>
					<path class="st4" d="M2295.9,1919.2c-6.1,0-31.2-0.5-49.3-7.9c-19.8-8.1-49-12.4-49.3-12.5c-1-0.1-1.6-1-1.5-2
						c0.1-1,1-1.6,2-1.5c0.3,0,30,4.4,50.1,12.7c19.6,8,49,7.6,49.3,7.6c1,0,1.8,0.8,1.8,1.7c0,1-0.8,1.8-1.7,1.8
						C2297.1,1919.2,2296.7,1919.2,2295.9,1919.2z"/>
				</g>
				<g>
					<path class="st4" d="M2067.9,2021.8c-0.3,0-0.7-0.1-1-0.3l-43.2-29.1c-0.8-0.5-1-1.6-0.5-2.5c0.5-0.8,1.6-1,2.5-0.5l43.2,29.1
						c0.8,0.5,1,1.6,0.5,2.5C2069,2021.6,2068.5,2021.8,2067.9,2021.8z"/>
				</g>
				<g>
					<path class="st4" d="M2186.2,1900.8c-0.4,0-0.9-0.2-1.2-0.5c-0.7-0.7-0.7-1.8,0-2.5c0.4-0.4,9.9-10,22.3-18.2
						c12.1-8.1,33.7-28.8,33.9-29c0.7-0.7,1.8-0.7,2.5,0.1c0.7,0.7,0.7,1.8-0.1,2.5c-0.9,0.9-22.1,21.2-34.4,29.4
						c-12.1,8-21.6,17.7-21.7,17.8C2187.1,1900.6,2186.6,1900.8,2186.2,1900.8z"/>
				</g>
				<g>
					<path class="st4" d="M2074.3,1934.7c-0.2,0-0.4,0-0.7-0.1c-0.9-0.4-1.3-1.4-1-2.3c0.1-0.2,2.2-5.2,16.9-23.5
						c14.5-18,35.6-53.1,35.8-53.4c0.5-0.8,1.6-1.1,2.4-0.6c0.8,0.5,1.1,1.6,0.6,2.4c-0.2,0.4-21.4,35.7-36.1,53.8
						c-14.2,17.5-16.3,22.4-16.4,22.6C2075.6,1934.3,2075,1934.7,2074.3,1934.7z"/>
				</g>
			</g>
			<g>
				<path class="st4" d="M1940.5,2033.1c0,0-40.5-4.4-43.9-8.8c-17.9-23.3,0.7-94.6,6.1-121.1c10.1-49.6,52.1-20.6,58.4-45.6
					c6.2-25-6.5-92.5,22.8-117.3c29.4-24.8,28.3,16.4,78.5-59.7c50.3-76.1,57.9-25.6,85.4-41.7s81.8-69.7,97.5-44.7
					s-64.9,123.3-95.4,155.2c-30.5,31.9-18,38.2,2.6,47.4s-10.4,68.2-70.1,100s-44.9,40.7-34,58.9
					C2059.3,1973.9,2025.1,2028.6,1940.5,2033.1z"/>
			</g>
			<g>
				<g>
					<g>
						<path class="st3" d="M1942.9,1997.1l-4.5-1.3c31.8-114.1,103.8-209.9,158.6-270.1c59.4-65.3,112-104.1,112.5-104.5l2.8,3.8
							c-0.5,0.4-52.8,39-111.9,104C2046,1788.9,1974.4,1884,1942.9,1997.1z"/>
					</g>
				</g>
				<g>
					<g>
						<path class="st3" d="M2006.1,1853.4l-2-4.3c53.9-24.9,104.7-30.5,105.2-30.6l0.5,4.7
							C2109.3,1823.3,2059.3,1828.9,2006.1,1853.4z"/>
					</g>
				</g>
				<g>
					<g>
						<path class="st3" d="M2073.6,1759.9l-4.1-2.4c31.8-54.9,25.2-99.3,25.2-99.7l4.7-0.7
							C2099.6,1658.9,2106.3,1703.4,2073.6,1759.9z"/>
					</g>
				</g>
				<g>
					<g>
						<path class="st3" d="M2014.5,1840.6l-4.5-1.5c16.1-47.8,6.1-82.3,5.9-82.7l4.5-1.4C2020.9,1756.5,2031.1,1791.4,2014.5,1840.6
							z"/>
					</g>
				</g>
				<g>
					<g>
						<path class="st3" d="M2106.1,1722.5l-1.9-4.3c1.2-0.5,29.2-12.5,55-12.5c0.2,0,0.4,0,0.6,0l0,4.7c-0.2,0-0.4,0-0.6,0
							C2134.4,1710.4,2106.4,1722.4,2106.1,1722.5z"/>
					</g>
				</g>
			</g>
			<g>
				<g>
					<path class="st4" d="M476.1,1753.1c0.1-0.9,5.1-95.2-20.1-164.4l4.7-1.7c25.5,70.2,20.5,165.5,20.4,166.4L476.1,1753.1z"/>
				</g>
				<g>
					<path class="st4" d="M477.9,1680.1c0,0-24.6-49.8-46.4-85.4C409.7,1559.1,359,1606.6,477.9,1680.1z"/>
				</g>
				<g>
					<path class="st4" d="M478.7,1709.3c0,0,15.6-44.5,18.7-74.5c3.1-30,26.7-37,32.5-4C535.7,1663.7,478.7,1709.3,478.7,1709.3z"/>
				</g>
				<g>
					<path class="st4" d="M470.1,1772.2c0,0,26.1-39.3,36.5-67.6c10.4-28.3,35-29.2,32.5,4.1C536.6,1742,470.1,1772.2,470.1,1772.2z
						"/>
				</g>
				<g>
					<path class="st4" d="M461.9,1598.3c0,0-5.7-82.8-21.2-94.4s-28.9,13-18,39.5C433.6,1569.8,461.9,1598.3,461.9,1598.3z"/>
				</g>
			</g>
			<g>
				<path class="st4" d="M413.5,1927.2c0,0-23.1-24.1-48-41.9c-24.9-17.8-39.1-33.8-39.1-33.8l6.2,54.2l-21.3-44.4
					c0,0-29.3-18.7-69.3-27.5s-65.8-29.9-65.8-29.9s22.2,102.3,67.5,140.3c0,0,46.2,2.4,57.8,12.2c0,0-40-1.8-59.5,7.1
					c0,0,24,16,48.9,37.3s87.2,25.5,129.8,27s95,0,95,0s-4.5-21.3-33.8-47.2C452.6,1954.6,413.5,1927.2,413.5,1927.2z"/>
			</g>
			<g>
				<g>
					<g>
						<path class="st3" d="M488.9,2021.8c-42.1-7-88.6-39.6-129.7-68.4c-15.8-11-30.6-21.5-44.6-30
							c-50.6-31.2-138.8-117.4-139.7-118.3l2.5-2.5c0.9,0.9,88.8,86.9,139.1,117.8c14,8.6,29,19.1,44.8,30.2
							c40.8,28.6,86.9,60.9,128.2,67.8L488.9,2021.8z"/>
					</g>
				</g>
				<g>
					<g>
						<path class="st3" d="M276.7,1895.9c-0.2-0.1-18.2-6-34.3-7.6c-16.5-1.6-42.5-10.5-43.6-10.9l1.2-3.3
							c0.3,0.1,26.7,9.1,42.8,10.7c16.5,1.6,34.4,7.5,35.1,7.7L276.7,1895.9z"/>
					</g>
				</g>
				<g>
					<g>
						<path class="st3" d="M300.7,1988.3c-16.1,0-29.4-2.1-30.3-2.3l0.6-3.5c0.4,0.1,36.3,5.7,61.3-1.5c9.9-2.9,17.8-6.3,24.8-9.3
							c11-4.8,19-8.2,26.6-5.6l-1.1,3.3c-6.4-2.2-13.8,1-24.1,5.5c-6.7,2.9-15.1,6.5-25.2,9.5C323,1987.4,311.2,1988.3,300.7,1988.3
							z"/>
					</g>
				</g>
				<g>
					<g>
						<path class="st3" d="M390.4,1974.9c-8-5.2-8.4-13.4-9-24.7c-0.4-7-0.8-14.9-3-24.4c-5.8-24.3-10.9-37.2-11-37.4l3.3-1.3
							c0.1,0.1,5.3,13.3,11.1,37.9c2.3,9.7,2.8,18.2,3.1,25c0.6,10.6,0.9,17.7,7.4,21.9L390.4,1974.9z"/>
					</g>
				</g>
				<g>
					<g>
						<path class="st3" d="M305.3,1917.1c-4.4-6.5-7-14.3-10.3-24.2c-1.1-3.4-2.4-7-3.8-10.9c-5.4-15.1-13-35.6-13.1-35.8l3.3-1.2
							c0.1,0.2,7.7,20.7,13.1,35.8c1.4,3.9,2.6,7.6,3.8,11c3.2,9.6,5.8,17.2,9.9,23.3L305.3,1917.1z"/>
					</g>
				</g>
				<g>
					<g>
						<path class="st3" d="M388.2,2021.7l-1.3-3.3c0.2-0.1,19.3-7.9,30.1-13.3c3-1.5,5.4-2.9,7.3-4c5.1-2.9,7.9-4.6,12.3-2.3
							l-1.6,3.1c-2.6-1.4-3.9-0.7-9,2.2c-2,1.1-4.4,2.5-7.5,4.1C407.6,2013.8,388.4,2021.6,388.2,2021.7z"/>
					</g>
				</g>
			</g>
			<g>
				<path class="st3" d="M542.2,2027.6c0,0,52.9-0.3,72.4-6.8c1.7-0.6,5-94.9-7.4-126.6c-18.4-47.1-74.1-17.5-79.4-42.6
					c-5.4-25.2,9.8-92.2-18.7-118.1c-28.5-25.9-28.8,15.4-76.4-62.4c-47.6-77.8-57-27.6-83.8-44.7s-79.3-72.5-95.8-48.1
					c-16.6,24.5,60.5,125.5,89.9,158.4s16.7,38.9-4.2,47.3c-20.9,8.4,8,68.6,66.5,102.4s43.5,42.3,31.9,60
					C425.5,1964.3,457.8,2020.1,542.2,2027.6z"/>
			</g>
			<g>
				<g>
					<path class="st4" d="M541,1991.6l4.6-1.1c-27.7-115.1-96.4-213.4-149-275.5c-57.1-67.3-108.3-108-108.8-108.4l-2.9,3.7
						c0.5,0.4,51.4,40.8,108.2,107.8C445.4,1779.8,513.5,1877.4,541,1991.6z"/>
				</g>
				<g>
					<path class="st4" d="M483,1845.8l2.1-4.2c-53-26.8-103.6-34.2-104.1-34.3l-0.7,4.7C380.8,1812,430.7,1819.4,483,1845.8z"/>
				</g>
				<g>
					<path class="st4" d="M418.8,1749.9l4.2-2.2c-29.9-56-21.7-100.1-21.7-100.5l-4.6-0.9C396.3,1648.1,388.1,1692.3,418.8,1749.9z"
						/>
				</g>
				<g>
					<path class="st4" d="M475,1832.6l4.5-1.4c-14.5-48.3-3.2-82.5-3-82.8l-4.5-1.5C471.5,1748.4,460.1,1782.9,475,1832.6z"/>
				</g>
				<g>
					<path class="st4" d="M387.6,1711.4l2-4.3c-1.2-0.6-28.7-13.5-54.5-14.5c-0.2,0-0.4,0-0.6,0l-0.1,4.7c0.2,0,0.4,0,0.6,0
						C359.7,1698.3,387.3,1711.3,387.6,1711.4z"/>
				</g>
			</g>
			<g>
				<rect x="225.8" y="2020.1" class="st5" width="2090.5" height="14.9"/>
			</g>
		</g>
	</g>
	<g>
		<g>
			<g>
				<path class="st6" d="M1880.2,1599l0-9.8c9.9,0,19.7-0.9,29.4-2.6l1.7,9.6C1901.1,1598,1890.7,1599,1880.2,1599z M1849.2,1596.3
					c-10.2-1.8-20.4-4.5-30.1-8l3.3-9.2c9.2,3.3,18.8,5.9,28.5,7.6L1849.2,1596.3z M1941.4,1588.1l-3.4-9.2
					c9.2-3.4,18.2-7.6,26.7-12.5l4.9,8.5C1960.6,1580.1,1951.1,1584.6,1941.4,1588.1z M1790.8,1575.2c-9-5.2-17.6-11.2-25.6-17.8
					l6.3-7.5c7.5,6.3,15.7,12,24.2,16.9L1790.8,1575.2z M1995.1,1557l-6.3-7.5c7.5-6.3,14.5-13.3,20.8-20.9l7.5,6.3
					C2010.4,1542.8,2003,1550.3,1995.1,1557z M1743.1,1535.4c-6.7-7.9-12.7-16.5-17.9-25.5l8.5-4.9c4.9,8.5,10.6,16.6,17,24.1
					L1743.1,1535.4z M2034.9,1509.4l-8.5-4.9c4.9-8.5,9.1-17.5,12.4-26.7l9.2,3.3C2044.6,1490.8,2040.1,1500.3,2034.9,1509.4z
					 M1711.9,1481.7c-3.6-9.7-6.3-19.9-8.1-30.1l9.6-1.7c1.7,9.7,4.3,19.2,7.7,28.4L1711.9,1481.7z M2056.1,1451l-9.6-1.7
					c1.7-9.6,2.5-19.4,2.5-29.1l9.8-0.2v0.2C2058.7,1430.5,2057.9,1440.8,2056.1,1451z M1710.8,1420.6h-9.8l0-0.4
					c0-10.5,0.9-20.9,2.7-31.1l9.6,1.7c-1.7,9.6-2.5,19.5-2.5,29.4L1710.8,1420.6z M2046.4,1390.6c-1.7-9.7-4.3-19.2-7.6-28.4
					l9.2-3.4c3.6,9.7,6.3,19.9,8.1,30.1L2046.4,1390.6z M1721,1362.3l-9.2-3.3c3.5-9.7,8-19.3,13.2-28.3l8.5,4.9
					C1728.5,1344.1,1724.3,1353.1,1721,1362.3z M2026.3,1335.5c-4.9-8.5-10.6-16.6-16.9-24.1l7.5-6.3c6.7,8,12.7,16.5,17.9,25.5
					L2026.3,1335.5z M1750.4,1311.5l-7.5-6.3c6.7-7.9,14.1-15.4,22-22l6.3,7.5C1763.7,1297,1756.7,1304,1750.4,1311.5z
					 M1988.5,1290.5c-7.5-6.3-15.7-12-24.1-16.9l4.9-8.5c9,5.2,17.6,11.2,25.5,17.9L1988.5,1290.5z M1795.3,1273.7l-4.9-8.5
					c9-5.2,18.5-9.6,28.2-13.2l3.4,9.2C1812.8,1264.6,1803.8,1268.8,1795.3,1273.7z M1937.6,1261.2c-9.2-3.3-18.8-5.9-28.5-7.6
					l1.7-9.6c10.2,1.8,20.4,4.5,30.1,8L1937.6,1261.2z M1850.4,1253.6l-1.7-9.6c10.2-1.8,20.6-2.7,31-2.7l0,9.8
					C1869.9,1251.1,1860.1,1251.9,1850.4,1253.6z"/>
			</g>
		</g>
		<g>
			<g>
				<path class="st6" d="M626.4,1569.5l0-9.5c7.6,0,15.2-0.7,22.7-2l1.7,9.3C642.8,1568.8,634.6,1569.5,626.4,1569.5z M602.1,1567.5
					c-8-1.4-16-3.5-23.6-6.2l3.2-8.9c7.1,2.6,14.5,4.5,22,5.8L602.1,1567.5z M674.3,1561l-3.3-8.9c7.1-2.6,14-5.9,20.6-9.7l4.8,8.2
					C689.4,1554.7,681.9,1558.2,674.3,1561z M556.3,1551c-7-4-13.8-8.7-20-13.9l6.1-7.3c5.8,4.9,12.1,9.2,18.7,13L556.3,1551z
					 M716.3,1536.5l-6.1-7.2c5.8-4.9,11.2-10.3,16.1-16.1l7.3,6.1C728.3,1525.4,722.5,1531.3,716.3,1536.5z M518.9,1519.9
					c-5.3-6.2-10-12.9-14.1-19.9l8.2-4.8c3.8,6.5,8.2,12.8,13.1,18.6L518.9,1519.9z M747.5,1499.2l-8.2-4.7c3.8-6.6,7-13.5,9.6-20.7
					l8.9,3.2C755,1484.6,751.6,1492.1,747.5,1499.2z M494.4,1477.9c-2.8-7.6-5-15.6-6.4-23.6l9.3-1.7c1.3,7.5,3.3,14.9,6,22
					L494.4,1477.9z M764.1,1453.4l-9.3-1.6c1.3-7.3,1.9-14.9,1.9-22.4v-0.3h9.5v0.3C766.1,1437.4,765.4,1445.5,764.1,1453.4z
					 M495.3,1430h-9.5l0-0.5c0-8.2,0.7-16.4,2.1-24.4l9.3,1.6c-1.3,7.4-2,15.1-2,22.7L495.3,1430z M754.6,1406.4
					c-1.3-7.5-3.3-14.9-5.9-22l8.9-3.3c2.8,7.6,4.9,15.6,6.4,23.6L754.6,1406.4z M503.1,1384.7l-8.9-3.2c2.8-7.6,6.3-15.1,10.3-22.1
					l8.2,4.7C509,1370.6,505.7,1377.6,503.1,1384.7z M739,1363.8c-3.8-6.6-8.2-12.8-13.1-18.6l7.2-6.1c5.2,6.2,10,12.9,14.1,20
					L739,1363.8z M525.8,1345.4l-7.3-6.1c5.2-6.2,11-12,17.3-17.3l6.1,7.3C536.1,1334.2,530.7,1339.6,525.8,1345.4z M709.8,1329.1
					c-5.8-4.9-12.1-9.3-18.7-13l4.7-8.2c7,4.1,13.8,8.8,20,14L709.8,1329.1z M560.5,1316.2l-4.8-8.2c7-4.1,14.5-7.6,22.1-10.3
					l3.3,8.9C574,1309.2,567.1,1312.4,560.5,1316.2z M670.5,1306.5c-7.1-2.6-14.5-4.5-22-5.8l1.6-9.3c8,1.4,16,3.5,23.6,6.3
					L670.5,1306.5z M603.1,1300.7l-1.6-9.3c8-1.4,16.2-2.1,24.3-2.1l0,9.5C618.2,1298.7,610.6,1299.4,603.1,1300.7z"/>
			</g>
		</g>
		<g>
			<g>
				<path class="st6" d="M1926.3,1148.8c-46.9,0-85-38.1-85-85c0-46.9,38.1-85,85-85c46.9,0,85,38.1,85,85
					C2011.3,1110.7,1973.2,1148.8,1926.3,1148.8z M1926.3,989.9c-40.8,0-73.9,33.2-73.9,73.9c0,40.8,33.2,73.9,73.9,73.9
					s73.9-33.2,73.9-73.9C2000.2,1023,1967.1,989.9,1926.3,989.9z"/>
			</g>
		</g>
		<g>
			<g>
				<path class="st6" d="M1930.7,854.3c-14.4,0-26.2-11.7-26.2-26.2s11.7-26.2,26.2-26.2s26.2,11.7,26.2,26.2
					S1945.1,854.3,1930.7,854.3z M1930.7,808.4c-10.9,0-19.8,8.9-19.8,19.8c0,10.9,8.9,19.8,19.8,19.8s19.8-8.9,19.8-19.8
					C1950.5,817.2,1941.6,808.4,1930.7,808.4z"/>
			</g>
		</g>
		<g>
			<g>
				<path class="st6" d="M722.7,805.7c-54.7,0-99.1-44.5-99.1-99.1c0-54.7,44.5-99.1,99.1-99.1c54.7,0,99.1,44.5,99.1,99.1
					C821.9,761.2,777.4,805.7,722.7,805.7z M722.7,615.4c-50.3,0-91.2,40.9-91.2,91.2c0,50.3,40.9,91.2,91.2,91.2
					c50.3,0,91.2-40.9,91.2-91.2S773,615.4,722.7,615.4z"/>
			</g>
		</g>
		<g>
			<g>
				<path class="st6" d="M557.7,1111.2c-17.9,0-32.4-14.5-32.4-32.4s14.5-32.4,32.4-32.4s32.4,14.5,32.4,32.4
					C590.1,1096.7,575.5,1111.2,557.7,1111.2z M557.7,1052.7c-14.4,0-26.2,11.7-26.2,26.2s11.7,26.2,26.2,26.2s26.2-11.7,26.2-26.2
					S572.1,1052.7,557.7,1052.7z"/>
			</g>
		</g>
	</g>
	<g>
		<path class="st7" d="M1848.8,605.5v1353.3c0,33.8-27.4,61.2-61.2,61.2H757c-33.8,0-61.2-27.4-61.2-61.2V605.5
			c0-6.8,1.1-13.3,3.1-19.4c0.1-0.4,0.2-0.8,0.4-1.1c8.4-23.7,31.1-40.7,57.7-40.7h1030.6c26.6,0,49.3,17,57.7,40.7
			c0.2,0.4,0.3,0.7,0.4,1.1v0C1847.7,592.2,1848.8,598.8,1848.8,605.5z"/>
	</g>
	<g>
		<path class="st2" d="M1808.8,615v1334.4c0,16.9-13.7,30.6-30.6,30.6H766.4c-16.9,0-30.6-13.7-30.6-30.6V615
			c0-16.9,13.7-30.6,30.6-30.6h1011.8C1795,584.4,1808.8,598.1,1808.8,615z"/>
	</g>
	<g>
		<path class="st8" d="M1753.9,665.1v1234.2c0,15.6-12.3,28.3-27.5,28.3H818.2c-15.2,0-27.5-12.7-27.5-28.3V665.1
			c0-15.6,12.3-28.3,27.5-28.3h908.3C1741.6,636.8,1753.9,649.4,1753.9,665.1z"/>
	</g>
	<g>
		<g>
			<g>
				<path class="st9" d="M1753.9,665.1v1234.2c0,15.6-12.3,28.3-27.5,28.3H818.2c-15.2,0-27.5-12.7-27.5-28.3V665.1
					c0-15.6,12.3-28.3,27.5-28.3h908.3C1741.6,636.8,1753.9,649.4,1753.9,665.1z"/>
			</g>
			<g class="st10">
				<g>
					<rect x="1102.1" y="1225.9" class="st11" width="242.9" height="349.2"/>
				</g>
				<g>
					<rect x="1372.1" y="1225.9" class="st11" width="159.9" height="210.3"/>
				</g>
				<g>
					<rect x="1573" y="1227.7" class="st11" width="148.5" height="210.3"/>
				</g>
				<g>
					<rect x="790.7" y="1225" class="st11" width="25" height="126"/>
				</g>
				<g>
					<rect x="790.7" y="1396.1" class="st11" width="25" height="325.2"/>
				</g>
				<g>
					<polygon class="st11" points="1099.8,1764.6 1237.2,1901.4 792.3,1901.2 792.3,1764.6 					"/>
				</g>
				<g>
					<polygon class="st11" points="1105,1704.5 1105,1619.7 1342.1,1619.7 1342.1,1884.8 1279.5,1882.2 					"/>
				</g>
				<g>
					<rect x="859.4" y="1613.4" class="st11" width="103.8" height="108"/>
				</g>
				<g>
					<rect x="859.4" y="1461.6" class="st11" width="103.8" height="108"/>
				</g>
				<g>
					<rect x="859.4" y="1225" class="st11" width="103.8" height="192.8"/>
				</g>
				<g>
					<rect x="1007.5" y="1229.1" class="st11" width="54.7" height="492.2"/>
				</g>
				<g>
					<rect x="1385.8" y="1752.4" class="st11" width="336.1" height="148.9"/>
				</g>
				<g>
					<rect x="1573" y="1479.4" class="st11" width="148.9" height="336.1"/>
				</g>
				<g>
					<rect x="1372.1" y="1479.4" class="st11" width="159.9" height="241.9"/>
				</g>
				<g>
					<rect x="1728.8" y="843" class="st11" width="25" height="338.9"/>
				</g>
				<g>
					<polygon class="st11" points="1444.8,799.8 1307.4,663 1752.3,663.1 1752.3,799.8 					"/>
				</g>
				<g>
					<polygon class="st11" points="1439.6,859.9 1439.6,944.6 1202.5,944.6 1202.5,679.5 1265.1,682.1 					"/>
				</g>
				<g>
					<rect x="1581.3" y="843" class="st11" width="103.8" height="107.9"/>
				</g>
				<g>
					<rect x="1581.3" y="997.1" class="st11" width="103.8" height="185"/>
				</g>
				<g>
					<rect x="1482.4" y="843" class="st11" width="54.7" height="336.1"/>
				</g>
				<g>
					<rect x="822.6" y="663" class="st11" width="336.1" height="148.9"/>
				</g>
				<g>
					<rect x="822.6" y="748.8" class="st11" width="148.9" height="433.2"/>
				</g>
				<g>
					<rect x="1012.5" y="843" class="st11" width="159.9" height="339.6"/>
				</g>
				<g>
					<rect x="1202.5" y="989" class="st11" width="237.6" height="193.1"/>
				</g>
			</g>
			<g>
				<g>
					<rect x="1355.8" y="1456.7" class="st12" width="201.8" height="4.6"/>
					<path class="st12" d="M1559.6,1463.4h-205.9v-8.7h205.9V1463.4z M1357.9,1459.3h197.6v-0.5h-197.6L1357.9,1459.3L1357.9,1459.3
						z"/>
				</g>
				<g>
					<rect x="991.5" y="1203" class="st12" width="368.7" height="4.6"/>
					<path class="st12" d="M1362.1,1209.6H989.6v-8.4h372.5V1209.6z M993.4,1205.7h364.9v-0.8H993.4V1205.7z"/>
				</g>
				<g>
					<rect x="1355.8" y="1206" class="st12" width="4.4" height="255.4"/>
					<path class="st12" d="M1362.2,1463.2h-8.2v-259.2h8.2V1463.2z M1357.7,1459.5h0.7v-251.6h-0.7V1459.5z"/>
				</g>
				<g>
					<rect x="989.5" y="1092.6" class="st12" width="4.4" height="115"/>
					<path class="st12" d="M995.8,1209.5h-8.2v-118.8h8.2V1209.5z M991.4,1205.8h0.7v-111.3h-0.7V1205.8z"/>
				</g>
				<g>
					<g>
						<g>
							<path class="st12" d="M1628.5,1275.5c-3.1-32.6-32.9-58.6-66-62.6c-45.7-5.5-84.9,29.8-85.4,74.5
								c-0.7,59.2,48.4,129.4,68.1,157.4c5.5,7.9,9.1,12.4,9.1,12.4s3.9-4.9,10.1-13.3c19.1-26.3,54.9-87.3,63-144.3
								c0.8-6,1.3-12,1.4-17.8C1628.8,1279.7,1628.7,1277.6,1628.5,1275.5z M1579.3,1322.7c-7.3,5.9-16.6,9.4-26.7,9.2
								c-4.4,0-8.7-0.8-12.7-2.1c-0.6-0.2-1.2-0.4-1.7-0.6c-15.9-6-27.1-21.5-26.9-39.5c0.3-23.1,19.2-41.6,42.2-41.3
								c23.1,0.3,41.6,19.2,41.3,42.2C1594.7,1303.6,1588.6,1315.1,1579.3,1322.7C1579.3,1322.7,1579.3,1322.7,1579.3,1322.7z"/>
						</g>
					</g>
					<g>
						<ellipse class="st12" cx="1552.9" cy="1457.9" rx="12.4" ry="12.4"/>
					</g>
				</g>
				<g>
					<ellipse class="st9" cx="1552.9" cy="1290.9" rx="42.9" ry="42.9"/>
					<path class="st13" d="M1552.9,1336.9c-25.3,0-46-20.6-46-46c0-25.3,20.6-46,46-46s46,20.6,46,46
						C1598.9,1316.3,1578.3,1336.9,1552.9,1336.9z M1552.9,1251c-22,0-39.9,17.9-39.9,39.9c0,22,17.9,39.9,39.9,39.9
						s39.9-17.9,39.9-39.9C1592.9,1268.9,1575,1251,1552.9,1251z"/>
				</g>
				<g>
					<g>
						<g>
							<path class="st12" d="M1026,1010.8c-1.4-14.8-14.9-26.6-30-28.4c-20.8-2.5-38.5,13.5-38.8,33.8c-0.3,26.9,22,58.8,30.9,71.5
								c2.5,3.6,4.1,5.6,4.1,5.6s1.8-2.2,4.6-6c8.7-11.9,24.9-39.7,28.6-65.5c0.4-2.7,0.6-5.4,0.6-8.1
								C1026.2,1012.7,1026.1,1011.8,1026,1010.8z M1003.7,1032.3c-3.3,2.7-7.5,4.2-12.1,4.2c-2,0-3.9-0.4-5.7-1
								c-0.3-0.1-0.5-0.2-0.8-0.3c-7.2-2.7-12.3-9.8-12.2-17.9c0.1-10.5,8.7-18.9,19.2-18.8c10.5,0.1,18.9,8.7,18.8,19.2
								C1010.7,1023.6,1007.9,1028.8,1003.7,1032.3C1003.7,1032.3,1003.7,1032.3,1003.7,1032.3z"/>
						</g>
					</g>
					<g>
						<path class="st12" d="M997.4,1093.2c0,3.1-2.6,5.7-5.7,5.7c-3.1,0-5.7-2.6-5.7-5.7c0-1.8,0.8-3.4,2.1-4.5
							c1-0.8,2.2-1.2,3.5-1.2c1.4,0,2.6,0.5,3.5,1.2C996.6,1089.8,997.4,1091.4,997.4,1093.2z"/>
					</g>
					<g>
						
							<ellipse transform="matrix(0.637 -0.7709 0.7709 0.637 -424.3122 1133.8876)" class="st9" cx="991.8" cy="1017.5" rx="19.9" ry="19.9"/>
						<path class="st13" d="M991.7,1039.4c-12.1,0-21.9-9.8-21.9-21.9c0-12.1,9.8-21.9,21.9-21.9s21.9,9.8,21.9,21.9
							C1013.6,1029.5,1003.8,1039.4,991.7,1039.4z M991.7,999.6c-9.8,0-17.9,8-17.9,17.9c0,9.8,8,17.9,17.9,17.9
							c9.8,0,17.9-8,17.9-17.9C1009.6,1007.6,1001.6,999.6,991.7,999.6z"/>
					</g>
				</g>
				<g>
					<g>
						<ellipse class="st8" cx="1088.5" cy="1202.4" rx="62" ry="62"/>
						<path class="st14" d="M1088.5,1266.4c-35.3,0-64-28.7-64-64s28.7-64,64-64s64,28.7,64,64
							C1152.5,1237.7,1123.8,1266.4,1088.5,1266.4z M1088.5,1142.4c-33.1,0-60,26.9-60,60s26.9,60,60,60s60-26.9,60-60
							S1121.6,1142.4,1088.5,1142.4z"/>
					</g>
					<g>
						<g>
							<g>
								<polygon class="st15" points="1084.6,1234.9 1051.5,1220.6 1051.5,1184 1084.6,1198.3 								"/>
							</g>
							<g>
								<polygon class="st16" points="1084.6,1234.9 1117.8,1220.6 1117.9,1184.2 1084.6,1198.3 								"/>
							</g>
							<g>
								<polygon class="st17" points="1051.5,1183.8 1084.6,1198.2 1117.8,1184.1 1084.8,1169.8 								"/>
							</g>
							<g>
								
									<rect x="1084.7" y="1165.7" transform="matrix(0.3984 -0.9172 0.9172 0.3984 -432.5348 1707.8051)" class="st16" width="1.9" height="36"/>
							</g>
							<g>
								<circle class="st8" cx="1071.7" cy="1222.8" r="2.3"/>
							</g>
							<g>
								<circle class="st8" cx="1078" cy="1225.1" r="2.3"/>
							</g>
						</g>
						<g>
							<g>
								<path class="st18" d="M1133.5,1198.7h-22.7c-0.8,0-1.5-0.7-1.5-1.5l0,0c0-0.8,0.7-1.5,1.5-1.5h22.7c0.8,0,1.5,0.7,1.5,1.5
									l0,0C1134.9,1198,1134.3,1198.7,1133.5,1198.7z"/>
							</g>
							<g>
								<path class="st18" d="M1121.9,1206.9h-22.6c-0.8,0-1.5-0.7-1.5-1.5l0,0c0-0.8,0.7-1.5,1.5-1.5h22.6c0.8,0,1.5,0.7,1.5,1.5
									l0,0C1123.3,1206.2,1122.7,1206.9,1121.9,1206.9z"/>
							</g>
							<g>
								<path class="st18" d="M1130.1,1214.7h-22.7c-0.8,0-1.5-0.7-1.5-1.5l0,0c0-0.8,0.7-1.5,1.5-1.5h22.7c0.8,0,1.5,0.7,1.5,1.5
									l0,0C1131.6,1214,1130.9,1214.7,1130.1,1214.7z"/>
							</g>
						</g>
					</g>
				</g>
			</g>
		</g>
		<g>
			<g>
				<path class="st11" d="M1753.9,665.1v86.4H790.7v-86.4c0-15.6,12.3-28.3,27.5-28.3h908.3C1741.6,636.8,1753.9,649.4,1753.9,665.1
					z"/>
			</g>
			<g>
				<g>
					<rect x="1639.8" y="667.4" class="st8" width="85.2" height="12.1"/>
				</g>
				<g>
					<rect x="1639.8" y="688.1" class="st8" width="85.2" height="12.1"/>
				</g>
				<g>
					<rect x="1639.8" y="708.7" class="st8" width="85.2" height="12.1"/>
				</g>
			</g>
		</g>
		<g>
			<path class="st9" d="M1726.4,1932.6H818.2c-17.9,0-32.5-15-32.5-33.3V665.1c0-18.4,14.6-33.3,32.5-33.3h908.3
				c17.9,0,32.5,15,32.5,33.3v1234.2C1758.9,1917.7,1744.3,1932.6,1726.4,1932.6z M818.2,641.8c-12.4,0-22.4,10.4-22.4,23.3v1234.2
				c0,12.8,10.1,23.3,22.4,23.3h908.3c12.4,0,22.4-10.4,22.4-23.3V665.1c0-12.8-10.1-23.3-22.4-23.3H818.2z"/>
		</g>
	</g>
</g>
</svg>
