<?xml version="1.0" encoding="UTF-8"?>
<svg id="Layer_1" xmlns="http://www.w3.org/2000/svg" version="1.1" viewBox="0 0 2544.6 2200">
  <!-- Generator: Adobe Illustrator 29.0.0, SVG Export Plug-In . SVG Version: 2.1.0 Build 186)  -->
  <defs>
    <style>
      .st0 {
        fill: #f8cd9e;
      }

      .st1 {
        fill: #00a154;
      }

      .st2 {
        fill: #99d6ff;
      }

      .st3 {
        fill: #fff;
      }

      .st4 {
        fill: #58abdd;
      }

      .st5 {
        fill: #9ad263;
      }

      .st6 {
        fill: #5eb9f7;
      }

      .st7 {
        fill: #ea876c;
      }

      .st8 {
        fill: #eefaff;
      }

      .st9 {
        fill: #f48fb1;
      }

      .st10 {
        fill: #70617f;
      }

      .st11 {
        fill: #fb9d7e;
      }

      .st12 {
        opacity: .6;
      }

      .st13 {
        opacity: .3;
      }

      .st14 {
        fill: #7bceef;
      }

      .st15 {
        fill: #f39246;
      }

      .st16 {
        fill: #9dc89e;
      }

      .st17 {
        fill: #bbdefb;
      }

      .st18 {
        fill: #599e85;
      }

      .st19 {
        opacity: .5;
      }
    </style>
  </defs>
  <g>
    <g>
      <g class="st13">
        <g class="st12">
          <path class="st17" d="M2332.5,1807.9c-.3,9-1,18.1-2.2,27.3-.2,1.5-.4,3.1-.6,4.6-2,13.8-5.1,27.9-9.3,42.1-.4,1.5-.9,2.9-1.4,4.4-2.9,9.3-6.3,18.8-10.3,28.2h0c-14.2,33.7-35,67.9-63.7,101.5-5.4,6.4-11.1,12.7-17.1,19H220.7c.1-6.2.4-12.5.9-19,2.5-35.9,10.1-75.2,26.3-115.5,6.7-16.6,14.8-33.4,24.6-50.2.8-1.3,1.6-2.7,2.4-4,1.2-2.1,2.5-4.1,3.7-6.1.7-1.2,1.5-2.3,2.2-3.5,6.2-9.7,13-19.4,20.5-29,.9-1.2,1.8-2.4,2.8-3.6h0c1.4-1.7,2.8-3.5,4.2-5.2,14.3-17.5,30.7-34.8,49.6-51.7,27-24.2,58.9-47.5,96.6-69.4,1.1-.6,2.2-1.3,3.3-1.9h0c13.8-7.9,28.3-15.7,43.7-23.2,5.5-2.7,10.9-5.3,16.2-8,0,0,.2,0,.3-.2,1.5-.8,3-1.5,4.5-2.2.3,0,.5-.3.8-.4h0c1.2-.6,2.4-1.2,3.7-1.9,3.5-1.7,7-3.5,10.4-5.2,8.8-4.4,17.2-8.7,25.4-13,321.9-166.8,211.8-203.9,224.9-462.2,0-2.8.4-5.6.6-8.4,0-1.2.2-2.4.4-3.6,31.9-275.4,582.4-829.6,913.9-697,83.5,33.4,140.6,88.4,178.2,153.9,113.8,198.4,47.8,575.8-10.8,657.1-2.9,4-5.6,8.2-8.1,12.6-.6,1.1-1.3,2.2-1.9,3.3-.7,1.3-1.4,2.6-2.1,3.9-.5,1-1,1.9-1.5,2.9s-1.2,2.3-1.7,3.5c-.6,1.2-1.1,2.4-1.6,3.6-48,107.5-19.5,300.7,144.7,293.2,1.6,0,3.3,0,4.9-.3,6.8-.5,13.9-1.3,21.2-2.5,9.5-1.5,19.5-3.7,29.8-6.5,6.4-1.7,13-3.7,19.8-6,12.9-4.4,25.9-7,38.8-8.1,6.8-.6,13.5-.8,20.3-.5,1.6,0,3.3,0,4.9.3,17.7,1.2,35,5.1,51.6,11.6h0c1.8.6,3.5,1.3,5.2,2.1,15.1,6.4,29.6,14.8,43,25.1,58,43.4,97.8,119.9,95.2,208.1Z"/>
        </g>
        <g class="st12">
          <path class="st17" d="M2368.8,1816.5c-.3,4.8-.8,9.5-1.4,14.3-.2,1.5-.4,3-.6,4.6-1,7.4-2.4,14.9-4,22.5-11.6,52.7-38.9,106.9-86.1,158.1-5.9,6.4-12.1,12.7-18.6,19H250.7c1.4-6.2,2.8-12.6,4.5-19,4.9-18.9,11.4-38.9,19.8-59.4,2.7-6.6,5.5-13.2,8.6-19.8,2.1-4.6,4.4-9.2,6.7-13.9,7.6-15,16.3-30.2,26.2-45.5.7-1.2,1.5-2.3,2.3-3.5s.8-1.2,1.2-1.7c.9-1.3,1.7-2.6,2.6-3.9,6.1-8.9,12.6-17.9,19.5-26.8,2.5-3.1,5-6.3,7.6-9.4,3.7-4.5,7.5-9,11.4-13.5,7.6-8.7,15.7-17.4,24.3-26,13.1-13.2,27.4-26.3,43-39.1,1.4-1.2,2.8-2.3,4.2-3.5h0c13.8-11.2,28.4-22.1,44.2-32.9h0c1-.7,2.1-1.4,3.2-2.1,12.2-8.2,25-16.4,38.5-24.3,1.2-.7,2.3-1.3,3.5-2,3.7-2.2,7.4-4.3,11.2-6.4.9-.5,1.8-1,2.7-1.5.4-.3.8-.5,1.3-.7.2,0,.3-.2.5-.3,1.1-.6,2.2-1.2,3.3-1.8,11.4-6.2,23.2-12.4,35.4-18.4,396.5-194.1,197.7-226.8,211.6-500.2,0-2.8.4-5.6.6-8.4,0-1.2.2-2.4.4-3.6,33.2-273.7,626.3-767.6,957.8-635,57.8,23.1,101.7,54.7,134.3,91.9,157.4,178.9,53.8,567.6-10.8,657.1-2.9,4-5.6,8.2-8.1,12.6-.6,1.1-1.3,2.2-1.9,3.3-.7,1.3-1.4,2.6-2.1,3.9-.5,1-1,1.9-1.5,2.9s-1.2,2.3-1.7,3.5c-.6,1.2-1.1,2.4-1.6,3.6-45.3,102.8-12.5,276.5,143.1,274.9,1.1,0,2.3,0,3.4,0h.5c1.6,0,3.3,0,4.9-.2,11-.5,22.5-1.9,34.6-4.3h0c1.6-.3,3.2-.6,4.8-1h0c12.5-2.6,25.6-6.2,39.3-10.8,14.6-4.9,29.2-7.9,43.6-9.2,27.6-2.5,54.7,1.4,80.2,10.5,1.8.6,3.7,1.3,5.5,2,13.7,5.3,26.9,12.1,39.5,20.3,73.2,47.5,123.4,140.1,116,243.2Z"/>
        </g>
      </g>
      <g class="st12">
        <g class="st12">
          <ellipse class="st17" cx="2092.9" cy="1276" rx="211.3" ry="171.9" transform="translate(-233.1 2049.3) rotate(-49.8)"/>
        </g>
        <g class="st12">
          <ellipse class="st17" cx="2081.4" cy="1318.4" rx="211.3" ry="171.9" transform="translate(-269.6 2055.4) rotate(-49.8)"/>
        </g>
      </g>
      <g class="st12">
        <g class="st12">
          <ellipse class="st17" cx="583" cy="1329.3" rx="212.1" ry="172.6" transform="translate(-808.3 915.6) rotate(-49.8)"/>
        </g>
        <g class="st12">
          <ellipse class="st17" cx="571.4" cy="1371.9" rx="212.1" ry="172.6" transform="translate(-844.9 921.8) rotate(-49.8)"/>
        </g>
      </g>
      <g class="st12">
        <g class="st12">
          <ellipse class="st17" cx="708.1" cy="860.7" rx="165.8" ry="134.9" transform="translate(-373.4 591.2) rotate(-36.6)"/>
        </g>
        <g class="st12">
          <ellipse class="st17" cx="691.6" cy="891" rx="165.8" ry="134.9" transform="translate(-394.7 587.3) rotate(-36.6)"/>
        </g>
      </g>
    </g>
    <g>
      <g>
        <path class="st16" d="M1956.7,1880.9l-4.6-1.1c.2-3.2-.4-54.8-.6-68.3,0-2.1,0-4.3.2-6.4,1-11.8,2-23.3,3.1-34.4.7-7.4,1.5-14.7,2.2-21.7,0-.6,0-1.3.2-1.9h0c6-55.9,12.4-97.5,13.3-103.3,0-.4,0-.7,0-.7l4.5.7c0,0-.5,3.3-1.4,9.1-1.5,10-4,27.6-6.8,50.4h0c-.2,1.8-.4,3.7-.7,5.5-2.3,18.4-4.7,39.9-7,63-1,10.6-2,21.5-3,32.6-.3,3.3-.4,6.7-.3,10,.3,15.7.9,63.3.8,66.5Z"/>
        <path class="st16" d="M1957.3,1749.4s-38-79.3-24.3-104.4,31.2-6.1,27.6,32.5c-3.6,38.7-3.3,71.9-3.3,71.9Z"/>
        <path class="st16" d="M1956.3,1845.4s-51.9-70.9-43.1-98.1,29.6-11.8,33.1,26.9c3.6,38.6,10,71.2,10,71.2Z"/>
        <path class="st16" d="M1965.3,1710.7s9.9-52.7,35.6-71.4c25.7-18.6,32.7,5.8,10.1,28.2-22.5,22.4-42.4,34.8-45.7,43.2Z"/>
        <path class="st16" d="M1952.6,1803.6s9.9-52.7,35.6-71.4c25.7-18.6,32.7,5.8,10.1,28.2-22.6,22.4-42.5,34.8-45.7,43.2Z"/>
        <path class="st16" d="M1973.2,1656.4s-15.4-66.7-2-87.3c13.4-20.6,31.9,3,18.2,36.5-13.8,33.5-16.2,50.8-16.2,50.8Z"/>
      </g>
      <path class="st16" d="M1923.5,2023.1s38.7-107.2,129.5-141.5l-23.5,48.7,44.6-54.6s30.5-16.4,69.5-20.1c38.9-3.7,48.1-2.7,48.1-2.7l-28.2,34.4,62.2-36.1s78.6-.2,141.2,24.8c0,0-39.9,6.5-65.7,37s-64,39.7-64,39.7c0,0-21.2-12.5-55.5-13.1,0,0,30.9,13.7,36.5,23.6,0,0-28.8,13-43.8,22.7s-49.5,22.9-49.5,22.9l-46-21.5,28.5,28.3s-24,18.9-69.2,11.4c-45.2-7.3-114.7-3.9-114.7-3.9Z"/>
      <g>
        <path class="st18" d="M2028.6,1952.3c-.7,0-1.3-.4-1.6-1.1-.4-.9,0-1.9.9-2.3,1.6-.7,164.7-70.5,315.7-75.2,1,0,1.8.7,1.8,1.7s-.7,1.8-1.7,1.8c-150.3,4.6-312.8,74.2-314.4,74.9-.2.2-.4.2-.7.2Z"/>
        <path class="st18" d="M2199.1,1974.2h-.2c-.3,0-8.8-1.3-36.3-15-27-13.5-78-28.1-78.5-28.2-.9-.3-1.5-1.2-1.2-2.2s1.2-1.5,2.2-1.2c.5,0,51.8,14.8,79.1,28.5,26.6,13.3,35.1,14.6,35.1,14.7,1,0,1.6,1,1.5,2-.1.8-.9,1.4-1.7,1.4Z"/>
        <path class="st18" d="M2295.9,1919.2c-6.1,0-31.2-.5-49.3-7.9-19.8-8.1-49-12.4-49.3-12.5-1,0-1.6-1-1.5-2s1-1.6,2-1.5c.3,0,30,4.4,50.1,12.7,19.6,8,49,7.6,49.3,7.6,1,0,1.8.8,1.8,1.7s-.8,1.8-1.7,1.8c-.2.1-.6.1-1.4.1Z"/>
        <path class="st18" d="M2067.9,2021.8c-.3,0-.7,0-1-.3l-43.2-29.1c-.8-.5-1-1.6-.5-2.5.5-.8,1.6-1,2.5-.5l43.2,29.1c.8.5,1,1.6.5,2.5-.4.6-.9.8-1.5.8Z"/>
        <path class="st18" d="M2186.2,1900.8c-.4,0-.9-.2-1.2-.5-.7-.7-.7-1.8,0-2.5.4-.4,9.9-10,22.3-18.2,12.1-8.1,33.7-28.8,33.9-29,.7-.7,1.8-.7,2.5,0,.7.7.7,1.8-.1,2.5-.9.9-22.1,21.2-34.4,29.4-12.1,8-21.6,17.7-21.7,17.8-.4.2-.9.4-1.3.4Z"/>
        <path class="st18" d="M2074.3,1934.7c-.2,0-.4,0-.7,0-.9-.4-1.3-1.4-1-2.3.1-.2,2.2-5.2,16.9-23.5,14.5-18,35.6-53.1,35.8-53.4.5-.8,1.6-1.1,2.4-.6.8.5,1.1,1.6.6,2.4-.2.4-21.4,35.7-36.1,53.8-14.2,17.5-16.3,22.4-16.4,22.6-.2.7-.8,1.1-1.5,1.1Z"/>
      </g>
      <path class="st18" d="M1940.5,2033.1s-40.5-4.4-43.9-8.8c-17.9-23.3.7-94.6,6.1-121.1,10.1-49.6,52.1-20.6,58.4-45.6,6.2-25-6.5-92.5,22.8-117.3,29.4-24.8,28.3,16.4,78.5-59.7,50.3-76.1,57.9-25.6,85.4-41.7s81.8-69.7,97.5-44.7-64.9,123.3-95.4,155.2c-30.5,31.9-18,38.2,2.6,47.4s-10.4,68.2-70.1,100-44.9,40.7-34,58.9c10.9,18.2-23.3,72.9-107.9,77.4Z"/>
      <g>
        <path class="st16" d="M1942.9,1997.1l-4.5-1.3c31.8-114.1,103.8-209.9,158.6-270.1,59.4-65.3,112-104.1,112.5-104.5l2.8,3.8c-.5.4-52.8,39-111.9,104-54.4,59.9-126,155-157.5,268.1Z"/>
        <path class="st16" d="M2006.1,1853.4l-2-4.3c53.9-24.9,104.7-30.5,105.2-30.6l.5,4.7c-.5.1-50.5,5.7-103.7,30.2Z"/>
        <path class="st16" d="M2073.6,1759.9l-4.1-2.4c31.8-54.9,25.2-99.3,25.2-99.7l4.7-.7c.2,1.8,6.9,46.3-25.8,102.8Z"/>
        <path class="st16" d="M2014.5,1840.6l-4.5-1.5c16.1-47.8,6.1-82.3,5.9-82.7l4.5-1.4c.5,1.5,10.7,36.4-5.9,85.6Z"/>
        <path class="st16" d="M2106.1,1722.5l-1.9-4.3c1.2-.5,29.2-12.5,55-12.5h.6v4.7h-.6c-24.8,0-52.8,12-53.1,12.1Z"/>
      </g>
      <g>
        <path class="st18" d="M476.1,1753.1c.1-.9,5.1-95.2-20.1-164.4l4.7-1.7c25.5,70.2,20.5,165.5,20.4,166.4l-5-.3Z"/>
        <path class="st18" d="M477.9,1680.1s-24.6-49.8-46.4-85.4-72.5,11.9,46.4,85.4Z"/>
        <path class="st18" d="M478.7,1709.3s15.6-44.5,18.7-74.5,26.7-37,32.5-4c5.8,32.9-51.2,78.5-51.2,78.5Z"/>
        <path class="st18" d="M470.1,1772.2s26.1-39.3,36.5-67.6c10.4-28.3,35-29.2,32.5,4.1-2.5,33.3-69,63.5-69,63.5Z"/>
        <path class="st18" d="M461.9,1598.3s-5.7-82.8-21.2-94.4-28.9,13-18,39.5c10.9,26.4,39.2,54.9,39.2,54.9Z"/>
      </g>
      <path class="st18" d="M413.5,1927.2s-23.1-24.1-48-41.9-39.1-33.8-39.1-33.8l6.2,54.2-21.3-44.4s-29.3-18.7-69.3-27.5-65.8-29.9-65.8-29.9c0,0,22.2,102.3,67.5,140.3,0,0,46.2,2.4,57.8,12.2,0,0-40-1.8-59.5,7.1,0,0,24,16,48.9,37.3s87.2,25.5,129.8,27,95,0,95,0c0,0-4.5-21.3-33.8-47.2-29.3-26-68.4-53.4-68.4-53.4Z"/>
      <g>
        <path class="st16" d="M488.9,2021.8c-42.1-7-88.6-39.6-129.7-68.4-15.8-11-30.6-21.5-44.6-30-50.6-31.2-138.8-117.4-139.7-118.3l2.5-2.5c.9.9,88.8,86.9,139.1,117.8,14,8.6,29,19.1,44.8,30.2,40.8,28.6,86.9,60.9,128.2,67.8l-.6,3.4Z"/>
        <path class="st16" d="M276.7,1895.9c-.2,0-18.2-6-34.3-7.6-16.5-1.6-42.5-10.5-43.6-10.9l1.2-3.3c.3,0,26.7,9.1,42.8,10.7,16.5,1.6,34.4,7.5,35.1,7.7l-1.2,3.4Z"/>
        <path class="st16" d="M300.7,1988.3c-16.1,0-29.4-2.1-30.3-2.3l.6-3.5c.4,0,36.3,5.7,61.3-1.5,9.9-2.9,17.8-6.3,24.8-9.3,11-4.8,19-8.2,26.6-5.6l-1.1,3.3c-6.4-2.2-13.8,1-24.1,5.5-6.7,2.9-15.1,6.5-25.2,9.5-10.3,3-22.1,3.9-32.6,3.9Z"/>
        <path class="st16" d="M390.4,1974.9c-8-5.2-8.4-13.4-9-24.7-.4-7-.8-14.9-3-24.4-5.8-24.3-10.9-37.2-11-37.4l3.3-1.3c.1,0,5.3,13.3,11.1,37.9,2.3,9.7,2.8,18.2,3.1,25,.6,10.6.9,17.7,7.4,21.9l-1.9,3Z"/>
        <path class="st16" d="M305.3,1917.1c-4.4-6.5-7-14.3-10.3-24.2-1.1-3.4-2.4-7-3.8-10.9-5.4-15.1-13-35.6-13.1-35.8l3.3-1.2c.1.2,7.7,20.7,13.1,35.8,1.4,3.9,2.6,7.6,3.8,11,3.2,9.6,5.8,17.2,9.9,23.3l-2.9,2Z"/>
        <path class="st16" d="M388.2,2021.7l-1.3-3.3c.2,0,19.3-7.9,30.1-13.3,3-1.5,5.4-2.9,7.3-4,5.1-2.9,7.9-4.6,12.3-2.3l-1.6,3.1c-2.6-1.4-3.9-.7-9,2.2-2,1.1-4.4,2.5-7.5,4.1-10.9,5.6-30.1,13.4-30.3,13.5Z"/>
      </g>
      <path class="st16" d="M542.2,2027.6s52.9-.3,72.4-6.8c1.7-.6,5-94.9-7.4-126.6-18.4-47.1-74.1-17.5-79.4-42.6-5.4-25.2,9.8-92.2-18.7-118.1s-28.8,15.4-76.4-62.4-57-27.6-83.8-44.7-79.3-72.5-95.8-48.1c-16.6,24.5,60.5,125.5,89.9,158.4s16.7,38.9-4.2,47.3c-20.9,8.4,8,68.6,66.5,102.4s43.5,42.3,31.9,60c-11.7,17.9,20.6,73.7,105,81.2Z"/>
      <g>
        <path class="st18" d="M541,1991.6l4.6-1.1c-27.7-115.1-96.4-213.4-149-275.5-57.1-67.3-108.3-108-108.8-108.4l-2.9,3.7c.5.4,51.4,40.8,108.2,107.8,52.3,61.7,120.4,159.3,147.9,273.5Z"/>
        <path class="st18" d="M483,1845.8l2.1-4.2c-53-26.8-103.6-34.2-104.1-34.3l-.7,4.7c.5,0,50.4,7.4,102.7,33.8Z"/>
        <path class="st18" d="M418.8,1749.9l4.2-2.2c-29.9-56-21.7-100.1-21.7-100.5l-4.6-.9c-.4,1.8-8.6,46,22.1,103.6Z"/>
        <path class="st18" d="M475,1832.6l4.5-1.4c-14.5-48.3-3.2-82.5-3-82.8l-4.5-1.5c-.5,1.5-11.9,36,3,85.7Z"/>
        <path class="st18" d="M387.6,1711.4l2-4.3c-1.2-.6-28.7-13.5-54.5-14.5h-.6v4.7h.5c24.7,1,52.3,14,52.6,14.1Z"/>
      </g>
      <rect class="st10" x="225.8" y="2020.1" width="2090.5" height="14.9"/>
    </g>
  </g>
  <g>
    <path class="st14" d="M1880.2,1599v-9.8c9.9,0,19.7-.9,29.4-2.6l1.7,9.6c-10.2,1.8-20.6,2.8-31.1,2.8ZM1849.2,1596.3c-10.2-1.8-20.4-4.5-30.1-8l3.3-9.2c9.2,3.3,18.8,5.9,28.5,7.6l-1.7,9.6ZM1941.4,1588.1l-3.4-9.2c9.2-3.4,18.2-7.6,26.7-12.5l4.9,8.5c-9,5.2-18.5,9.7-28.2,13.2ZM1790.8,1575.2c-9-5.2-17.6-11.2-25.6-17.8l6.3-7.5c7.5,6.3,15.7,12,24.2,16.9l-4.9,8.4ZM1995.1,1557l-6.3-7.5c7.5-6.3,14.5-13.3,20.8-20.9l7.5,6.3c-6.7,7.9-14.1,15.4-22,22.1ZM1743.1,1535.4c-6.7-7.9-12.7-16.5-17.9-25.5l8.5-4.9c4.9,8.5,10.6,16.6,17,24.1l-7.6,6.3ZM2034.9,1509.4l-8.5-4.9c4.9-8.5,9.1-17.5,12.4-26.7l9.2,3.3c-3.4,9.7-7.9,19.2-13.1,28.3ZM1711.9,1481.7c-3.6-9.7-6.3-19.9-8.1-30.1l9.6-1.7c1.7,9.7,4.3,19.2,7.7,28.4l-9.2,3.4ZM2056.1,1451l-9.6-1.7c1.7-9.6,2.5-19.4,2.5-29.1l9.8-.2v.2c-.1,10.3-.9,20.6-2.7,30.8ZM1710.8,1420.6h-9.8v-.4c0-10.5.9-20.9,2.7-31.1l9.6,1.7c-1.7,9.6-2.5,19.5-2.5,29.4v.4ZM2046.4,1390.6c-1.7-9.7-4.3-19.2-7.6-28.4l9.2-3.4c3.6,9.7,6.3,19.9,8.1,30.1l-9.7,1.7ZM1721,1362.3l-9.2-3.3c3.5-9.7,8-19.3,13.2-28.3l8.5,4.9c-5,8.5-9.2,17.5-12.5,26.7ZM2026.3,1335.5c-4.9-8.5-10.6-16.6-16.9-24.1l7.5-6.3c6.7,8,12.7,16.5,17.9,25.5l-8.5,4.9ZM1750.4,1311.5l-7.5-6.3c6.7-7.9,14.1-15.4,22-22l6.3,7.5c-7.5,6.3-14.5,13.3-20.8,20.8ZM1988.5,1290.5c-7.5-6.3-15.7-12-24.1-16.9l4.9-8.5c9,5.2,17.6,11.2,25.5,17.9l-6.3,7.5ZM1795.3,1273.7l-4.9-8.5c9-5.2,18.5-9.6,28.2-13.2l3.4,9.2c-9.2,3.4-18.2,7.6-26.7,12.5ZM1937.6,1261.2c-9.2-3.3-18.8-5.9-28.5-7.6l1.7-9.6c10.2,1.8,20.4,4.5,30.1,8l-3.3,9.2ZM1850.4,1253.6l-1.7-9.6c10.2-1.8,20.6-2.7,31-2.7v9.8c-9.8,0-19.6.8-29.3,2.5Z"/>
    <path class="st14" d="M626.4,1569.5v-9.5c7.6,0,15.2-.7,22.7-2l1.7,9.3c-8,1.5-16.2,2.2-24.4,2.2ZM602.1,1567.5c-8-1.4-16-3.5-23.6-6.2l3.2-8.9c7.1,2.6,14.5,4.5,22,5.8l-1.6,9.3ZM674.3,1561l-3.3-8.9c7.1-2.6,14-5.9,20.6-9.7l4.8,8.2c-7,4.1-14.5,7.6-22.1,10.4ZM556.3,1551c-7-4-13.8-8.7-20-13.9l6.1-7.3c5.8,4.9,12.1,9.2,18.7,13l-4.8,8.2ZM716.3,1536.5l-6.1-7.2c5.8-4.9,11.2-10.3,16.1-16.1l7.3,6.1c-5.3,6.1-11.1,12-17.3,17.2ZM518.9,1519.9c-5.3-6.2-10-12.9-14.1-19.9l8.2-4.8c3.8,6.5,8.2,12.8,13.1,18.6l-7.2,6.1ZM747.5,1499.2l-8.2-4.7c3.8-6.6,7-13.5,9.6-20.7l8.9,3.2c-2.8,7.6-6.2,15.1-10.3,22.2ZM494.4,1477.9c-2.8-7.6-5-15.6-6.4-23.6l9.3-1.7c1.3,7.5,3.3,14.9,6,22l-8.9,3.3ZM764.1,1453.4l-9.3-1.6c1.3-7.3,1.9-14.9,1.9-22.4v-.3h9.5v.3c-.1,8-.8,16.1-2.1,24ZM495.3,1430h-9.5v-.5c0-8.2.7-16.4,2.1-24.4l9.3,1.6c-1.3,7.4-2,15.1-2,22.7v.6ZM754.6,1406.4c-1.3-7.5-3.3-14.9-5.9-22l8.9-3.3c2.8,7.6,4.9,15.6,6.4,23.6l-9.4,1.7ZM503.1,1384.7l-8.9-3.2c2.8-7.6,6.3-15.1,10.3-22.1l8.2,4.7c-3.7,6.5-7,13.5-9.6,20.6ZM739,1363.8c-3.8-6.6-8.2-12.8-13.1-18.6l7.2-6.1c5.2,6.2,10,12.9,14.1,20l-8.2,4.7ZM525.8,1345.4l-7.3-6.1c5.2-6.2,11-12,17.3-17.3l6.1,7.3c-5.8,4.9-11.2,10.3-16.1,16.1ZM709.8,1329.1c-5.8-4.9-12.1-9.3-18.7-13l4.7-8.2c7,4.1,13.8,8.8,20,14l-6,7.2ZM560.5,1316.2l-4.8-8.2c7-4.1,14.5-7.6,22.1-10.3l3.3,8.9c-7.1,2.6-14,5.8-20.6,9.6ZM670.5,1306.5c-7.1-2.6-14.5-4.5-22-5.8l1.6-9.3c8,1.4,16,3.5,23.6,6.3l-3.2,8.8ZM603.1,1300.7l-1.6-9.3c8-1.4,16.2-2.1,24.3-2.1v9.5c-7.6,0-15.2.6-22.7,1.9Z"/>
    <path class="st14" d="M1926.3,1148.8c-46.9,0-85-38.1-85-85s38.1-85,85-85,85,38.1,85,85-38.1,85-85,85ZM1926.3,989.9c-40.8,0-73.9,33.2-73.9,73.9s33.2,73.9,73.9,73.9,73.9-33.2,73.9-73.9c0-40.8-33.1-73.9-73.9-73.9Z"/>
    <path class="st14" d="M1930.7,854.3c-14.4,0-26.2-11.7-26.2-26.2s11.7-26.2,26.2-26.2,26.2,11.7,26.2,26.2-11.8,26.2-26.2,26.2ZM1930.7,808.4c-10.9,0-19.8,8.9-19.8,19.8s8.9,19.8,19.8,19.8,19.8-8.9,19.8-19.8-8.9-19.8-19.8-19.8Z"/>
    <path class="st14" d="M722.7,805.7c-54.7,0-99.1-44.5-99.1-99.1s44.5-99.1,99.1-99.1,99.1,44.5,99.1,99.1c.1,54.6-44.4,99.1-99.1,99.1ZM722.7,615.4c-50.3,0-91.2,40.9-91.2,91.2s40.9,91.2,91.2,91.2,91.2-40.9,91.2-91.2-40.9-91.2-91.2-91.2Z"/>
    <path class="st14" d="M557.7,1111.2c-17.9,0-32.4-14.5-32.4-32.4s14.5-32.4,32.4-32.4,32.4,14.5,32.4,32.4c0,17.9-14.6,32.4-32.4,32.4ZM557.7,1052.7c-14.4,0-26.2,11.7-26.2,26.2s11.7,26.2,26.2,26.2,26.2-11.7,26.2-26.2-11.8-26.2-26.2-26.2Z"/>
  </g>
  <path class="st1" d="M1848.8,605.5v1353.3c0,33.8-27.4,61.2-61.2,61.2H757c-33.8,0-61.2-27.4-61.2-61.2V605.5c0-6.8,1.1-13.3,3.1-19.4,0-.4.2-.8.4-1.1,8.4-23.7,31.1-40.7,57.7-40.7h1030.6c26.6,0,49.3,17,57.7,40.7.2.4.3.7.4,1.1h0c2,6.1,3.1,12.7,3.1,19.4Z"/>
  <path class="st17" d="M1808.8,615v1334.4c0,16.9-13.7,30.6-30.6,30.6h-1011.8c-16.9,0-30.6-13.7-30.6-30.6V615c0-16.9,13.7-30.6,30.6-30.6h1011.8c16.8,0,30.6,13.7,30.6,30.6Z"/>
  <path class="st3" d="M1753.9,665.1v1234.2c0,15.6-12.3,28.3-27.5,28.3h-908.2c-15.2,0-27.5-12.7-27.5-28.3V665.1c0-15.6,12.3-28.3,27.5-28.3h908.3c15.1,0,27.4,12.6,27.4,28.3Z"/>
  <g>
    <path class="st8" d="M1753.9,665.1v1234.2c0,15.6-12.3,28.3-27.5,28.3h-908.2c-15.2,0-27.5-12.7-27.5-28.3V665.1c0-15.6,12.3-28.3,27.5-28.3h908.3c15.1,0,27.4,12.6,27.4,28.3Z"/>
    <g class="st19">
      <rect class="st5" x="1102.1" y="1225.9" width="242.9" height="349.2"/>
      <rect class="st5" x="1372.1" y="1225.9" width="159.9" height="210.3"/>
      <rect class="st5" x="1573" y="1227.7" width="148.5" height="210.3"/>
      <rect class="st5" x="790.7" y="1225" width="25" height="126"/>
      <rect class="st5" x="790.7" y="1396.1" width="25" height="325.2"/>
      <polygon class="st5" points="1099.8 1764.6 1237.2 1901.4 792.3 1901.2 792.3 1764.6 1099.8 1764.6"/>
      <polygon class="st5" points="1105 1704.5 1105 1619.7 1342.1 1619.7 1342.1 1884.8 1279.5 1882.2 1105 1704.5"/>
      <rect class="st5" x="859.4" y="1613.4" width="103.8" height="108"/>
      <rect class="st5" x="859.4" y="1461.6" width="103.8" height="108"/>
      <rect class="st5" x="859.4" y="1225" width="103.8" height="192.8"/>
      <rect class="st5" x="1007.5" y="1229.1" width="54.7" height="492.2"/>
      <rect class="st5" x="1385.8" y="1752.4" width="336.1" height="148.9"/>
      <rect class="st5" x="1573" y="1479.4" width="148.9" height="336.1"/>
      <rect class="st5" x="1372.1" y="1479.4" width="159.9" height="241.9"/>
      <rect class="st5" x="1728.8" y="843" width="25" height="338.9"/>
      <polygon class="st5" points="1444.8 799.8 1307.4 663 1752.3 663.1 1752.3 799.8 1444.8 799.8"/>
      <polygon class="st5" points="1439.6 859.9 1439.6 944.6 1202.5 944.6 1202.5 679.5 1265.1 682.1 1439.6 859.9"/>
      <rect class="st5" x="1581.3" y="843" width="103.8" height="107.9"/>
      <rect class="st5" x="1581.3" y="997.1" width="103.8" height="185"/>
      <rect class="st5" x="1482.4" y="843" width="54.7" height="336.1"/>
      <rect class="st5" x="822.6" y="663" width="336.1" height="148.9"/>
      <rect class="st5" x="822.6" y="748.8" width="148.9" height="433.2"/>
      <rect class="st5" x="1012.5" y="843" width="159.9" height="339.6"/>
      <rect class="st5" x="1202.5" y="989" width="237.6" height="193.1"/>
    </g>
    <g>
      <g>
        <rect class="st9" x="1355.8" y="1456.7" width="201.8" height="4.6"/>
        <path class="st15" d="M1559.6,1463.4h-205.9v-8.7h205.9v8.7ZM1357.9,1459.3h197.6v-.5h-197.6v.5h0Z"/>
      </g>
      <g>
        <rect class="st15" x="991.5" y="1203" width="368.7" height="4.6"/>
        <path class="st15" d="M1362.1,1209.6h-372.5v-8.4h372.5v8.4ZM993.4,1205.7h364.9v-.8h-364.9v.8Z"/>
      </g>
      <g>
        <rect class="st9" x="1355.8" y="1206" width="4.4" height="255.4"/>
        <path class="st15" d="M1362.2,1463.2h-8.2v-259.2h8.2v259.2ZM1357.7,1459.5h.7v-251.6h-.7v251.6Z"/>
      </g>
      <g>
        <rect class="st9" x="989.5" y="1092.6" width="4.4" height="115"/>
        <path class="st15" d="M995.8,1209.5h-8.2v-118.8h8.2v118.8ZM991.4,1205.8h.7v-111.3h-.7v111.3Z"/>
      </g>
      <g>
        <path class="st15" d="M1628.5,1275.5c-3.1-32.6-32.9-58.6-66-62.6-45.7-5.5-84.9,29.8-85.4,74.5-.7,59.2,48.4,129.4,68.1,157.4,5.5,7.9,9.1,12.4,9.1,12.4,0,0,3.9-4.9,10.1-13.3,19.1-26.3,54.9-87.3,63-144.3.8-6,1.3-12,1.4-17.8,0-2.1,0-4.2-.3-6.3ZM1579.3,1322.7c-7.3,5.9-16.6,9.4-26.7,9.2-4.4,0-8.7-.8-12.7-2.1-.6-.2-1.2-.4-1.7-.6-15.9-6-27.1-21.5-26.9-39.5.3-23.1,19.2-41.6,42.2-41.3,23.1.3,41.6,19.2,41.3,42.2-.1,13-6.2,24.5-15.5,32.1h0Z"/>
        <circle class="st15" cx="1552.9" cy="1457.9" r="12.4"/>
      </g>
      <g>
        <circle class="st8" cx="1552.9" cy="1290.9" r="42.9"/>
        <path class="st15" d="M1552.9,1336.9c-25.3,0-46-20.6-46-46s20.6-46,46-46,46,20.6,46,46-20.6,46-46,46ZM1552.9,1251c-22,0-39.9,17.9-39.9,39.9s17.9,39.9,39.9,39.9,39.9-17.9,39.9-39.9c0-22-17.8-39.9-39.9-39.9Z"/>
      </g>
      <g>
        <path class="st15" d="M1026,1010.8c-1.4-14.8-14.9-26.6-30-28.4-20.8-2.5-38.5,13.5-38.8,33.8-.3,26.9,22,58.8,30.9,71.5,2.5,3.6,4.1,5.6,4.1,5.6,0,0,1.8-2.2,4.6-6,8.7-11.9,24.9-39.7,28.6-65.5.4-2.7.6-5.4.6-8.1.2-1,0-1.9,0-2.9ZM1003.7,1032.3c-3.3,2.7-7.5,4.2-12.1,4.2s-3.9-.4-5.7-1c-.3,0-.5-.2-.8-.3-7.2-2.7-12.3-9.8-12.2-17.9,0-10.5,8.7-18.9,19.2-18.8,10.5,0,18.9,8.7,18.8,19.2-.2,5.9-3,11.1-7.2,14.6h0Z"/>
        <path class="st15" d="M997.4,1093.2c0,3.1-2.6,5.7-5.7,5.7s-5.7-2.6-5.7-5.7.8-3.4,2.1-4.5c1-.8,2.2-1.2,3.5-1.2s2.6.5,3.5,1.2c1.5,1.1,2.3,2.7,2.3,4.5Z"/>
        <g>
          <circle class="st8" cx="991.9" cy="1017.5" r="19.9"/>
          <path class="st15" d="M991.7,1039.4c-12.1,0-21.9-9.8-21.9-21.9s9.8-21.9,21.9-21.9,21.9,9.8,21.9,21.9c0,12-9.8,21.9-21.9,21.9ZM991.7,999.6c-9.8,0-17.9,8-17.9,17.9s8,17.9,17.9,17.9,17.9-8,17.9-17.9c0-9.9-8-17.9-17.9-17.9Z"/>
        </g>
      </g>
      <g>
        <g>
          <circle class="st3" cx="1088.5" cy="1202.4" r="62"/>
          <path class="st4" d="M1088.5,1266.4c-35.3,0-64-28.7-64-64s28.7-64,64-64,64,28.7,64,64-28.7,64-64,64ZM1088.5,1142.4c-33.1,0-60,26.9-60,60s26.9,60,60,60,60-26.9,60-60-26.9-60-60-60Z"/>
        </g>
        <g>
          <g>
            <polygon class="st0" points="1084.6 1234.9 1051.5 1220.6 1051.5 1184 1084.6 1198.3 1084.6 1234.9"/>
            <polygon class="st7" points="1084.6 1234.9 1117.8 1220.6 1117.9 1184.2 1084.6 1198.3 1084.6 1234.9"/>
            <polygon class="st11" points="1051.5 1183.8 1084.6 1198.2 1117.8 1184.1 1084.8 1169.8 1051.5 1183.8"/>
            <rect class="st7" x="1084.7" y="1165.6" width="1.9" height="36" transform="translate(-432.5 1707.9) rotate(-66.5)"/>
            <circle class="st3" cx="1071.7" cy="1222.8" r="2.3"/>
            <circle class="st3" cx="1078" cy="1225.1" r="2.3"/>
          </g>
          <g>
            <path class="st2" d="M1133.5,1198.7h-22.7c-.8,0-1.5-.7-1.5-1.5h0c0-.8.7-1.5,1.5-1.5h22.7c.8,0,1.5.7,1.5,1.5h0c0,.8-.7,1.5-1.5,1.5Z"/>
            <path class="st2" d="M1121.9,1206.9h-22.6c-.8,0-1.5-.7-1.5-1.5h0c0-.8.7-1.5,1.5-1.5h22.6c.8,0,1.5.7,1.5,1.5h0c0,.8-.7,1.5-1.5,1.5Z"/>
            <path class="st2" d="M1130.1,1214.7h-22.7c-.8,0-1.5-.7-1.5-1.5h0c0-.8.7-1.5,1.5-1.5h22.7c.8,0,1.5.7,1.5,1.5h0c0,.8-.7,1.5-1.5,1.5Z"/>
          </g>
        </g>
      </g>
    </g>
    <g>
      <path class="st6" d="M1753.9,665.1v86.4h-963.2v-86.4c0-15.6,12.3-28.3,27.5-28.3h908.3c15.1,0,27.4,12.6,27.4,28.3Z"/>
      <g>
        <rect class="st3" x="1639.8" y="667.4" width="85.2" height="12.1"/>
        <rect class="st3" x="1639.8" y="688.1" width="85.2" height="12.1"/>
        <rect class="st3" x="1639.8" y="708.7" width="85.2" height="12.1"/>
      </g>
    </g>
    <path class="st8" d="M1726.4,1932.6h-908.2c-17.9,0-32.5-15-32.5-33.3V665.1c0-18.4,14.6-33.3,32.5-33.3h908.3c17.9,0,32.5,15,32.5,33.3v1234.2c0,18.4-14.7,33.3-32.6,33.3ZM818.2,641.8c-12.4,0-22.4,10.4-22.4,23.3v1234.2c0,12.8,10.1,23.3,22.4,23.3h908.3c12.4,0,22.4-10.4,22.4-23.3V665.1c0-12.8-10.1-23.3-22.4-23.3h-908.3Z"/>
  </g>
</svg>